{"title":"24 S09E11 SUB-ESP Subtitulado 1080p-McFly-H264.MP4","uid":10599506,"size":903852362,"categoryP":"video","categoryS":"hd___tv_shows","magnet":"?xt=urn:btih:ec2de81e5edeb902b01208e86db2d5b7843b7f21&amp;dn=24+S09E11+SUB-ESP+Subtitulado+1080p-McFly-H264.MP4&amp;tr=udp%3A%2F%2Ftracker.openbittorrent.com%3A80&amp;tr=udp%3A%2F%2Fopen.demonii.com%3A1337&amp;tr=udp%3A%2F%2Ftracker.coppersurfer.tk%3A6969&amp;tr=udp%3A%2F%2Fexodus.desync.com%3A6969","seeders":2,"leechers":0,"uploader":"gunsnik","files":1,"time":1405899943,"description":"General\nUnique ID                                : 239089709928067469481651232305841901974 (0xB3DF00D00BD08D3F8255D68AB0FB1196)\nComplete name                            : D:BAJADOS2424.S09E11.1080p.h264-McFLY.mkv\nFormat                                   : Matroska\nFormat version                           : Version 4 / Version 2\nFile size                                : 862 MiB\nDuration                                 : 41mn 54s\nOverall bit rate                         : 2 876 Kbps\nEncoded date                             : UTC 2014-07-20 21:36:19\nWriting application                      : mkvmerge v7.0.0 ('Where We Going') 64bit built on Jun  9 2014 15:16:27\nWriting library                          : libebml v1.3.0 + libmatroska v1.4.1\nDURATION                                 : 00:41:53.712000000\nNUMBER_OF_FRAMES                         : 104738\nNUMBER_OF_BYTES                          : 70383936\n_STATISTICS_WRITING_APP                  : mkvmerge v7.0.0 ('Where We Going') 64bit built on Jun  9 2014 15:16:27\n_STATISTICS_WRITING_DATE_UTC             : 2014-07-20 21:36:19\n_STATISTICS_TAGS                         : BPS DURATION NUMBER_OF_FRAMES NUMBER_OF_BYTES\n\nVideo\nID                                       : 1\nFormat                                   : AVC\nFormat/Info                              : Advanced Video Codec\nFormat profile                           : &lt;a class=&quot;__cf_email__&quot; href=&quot;/cdn-cgi/l/email-protection&quot; data-cfemail=&quot;8fc7e6e8e7cfc3bba1bf&quot;&gt;[email&amp;#160;protected]&lt;/a&gt;&lt;script cf-hash='f9e31' type=&quot;text/javascript&quot;&gt;\n/* &lt;![CDATA[ */!function(){try{var t=&quot;currentScript&quot;in document?document.currentScript:function(){for(var t=document.getElementsByTagName(&quot;script&quot;),e=t.length;e--;)if(t[e].getAttribute(&quot;cf-hash&quot;))return t[e]}();if(t&amp;&amp;t.previousSibling){var e,r,n,i,c=t.previousSibling,a=c.getAttribute(&quot;data-cfemail&quot;);if(a){for(e=&quot;&quot;,r=parseInt(a.substr(0,2),16),n=2;a.length-n;n+=2)i=parseInt(a.substr(n,2),16)^r,e+=String.fromCharCode(i);e=document.createTextNode(e),c.parentNode.replaceChild(e,c)}}}catch(u){}}();/* ]]&gt; */&lt;/script&gt;\nFormat settings, CABAC                   : Yes\nFormat settings, ReFrames                : 4 frames\nFormat settings, GOP                     : M=8, N=32\nCodec ID                                 : V_MPEG4/ISO/AVC\nDuration                                 : 41mn 54s\nBit rate                                 : 2 595 Kbps\nWidth                                    : 1 920 pixels\nHeight                                   : 1 080 pixels\nDisplay aspect ratio                     : 16:9\nFrame rate                               : 29.970 fps\nStandard                                 : Component\nColor space                              : YUV\nChroma subsampling                       : 4:2:0\nBit depth                                : 8 bits\nScan type                                : MBAFF\nBits/(Pixel*Frame)                       : 0.042\nStream size                              : 778 MiB (90%)\nDefault                                  : Yes\nForced                                   : No\nColor primaries                          : BT.709-5, BT.1361, IEC 61966-2-4, SMPTE RP177\nTransfer characteristics                 : BT.709-5, BT.1361\nMatrix coefficients                      : BT.709-5, BT.1361, IEC 61966-2-4 709, SMPTE RP177\n\nAudio\nID                                       : 2\nFormat                                   : MPEG Audio\nFormat version                           : Version 1\nFormat profile                           : Layer 3\nCodec ID                                 : A_MPEG/L3\nCodec ID/Hint                            : MP3\nDuration                                 : 41mn 54s\nBit rate mode                            : Constant\nBit rate                                 : 224 Kbps\nChannel(s)                               : 2 channels\nSampling rate                            : 48.0 KHz\nCompression mode                         : Lossy\nDelay relative to video                  : 234ms\nStream size                              : 67.1 MiB (8%)\nWriting library                          : LAME3.99.5\nDefault                                  : Yes\nForced                                   : No\n\n\nCapturas: &lt;a href=&quot;\nhttp://i39.servimg.com/u/f39/11/56/14/72/24_s0934.jpg&quot; rel=&quot;nofollow&quot; target=&quot;_NEW&quot;&gt;\nhttp://i39.servimg.com/u/f39/11/56/14/72/24_s0934.jpg&lt;/a&gt; &lt;a href=&quot;\nhttp://i39.servimg.com/u/f39/11/56/14/72/24_s0935.jpg&quot; rel=&quot;nofollow&quot; target=&quot;_NEW&quot;&gt;\nhttp://i39.servimg.com/u/f39/11/56/14/72/24_s0935.jpg&lt;/a&gt; &lt;a href=&quot;\nhttp://i39.servimg.com/u/f39/11/56/14/72/24_s0936.jpg&quot; rel=&quot;nofollow&quot; target=&quot;_NEW&quot;&gt;\nhttp://i39.servimg.com/u/f39/11/56/14/72/24_s0936.jpg&lt;/a&gt; &lt;a href=&quot;\nhttp://i39.servimg.com/u/f39/11/56/14/72/24_s0937.jpg&quot; rel=&quot;nofollow&quot; target=&quot;_NEW&quot;&gt;\nhttp://i39.servimg.com/u/f39/11/56/14/72/24_s0937.jpg&lt;/a&gt;","torrent":{"xt":"urn:btih:ec2de81e5edeb902b01208e86db2d5b7843b7f21","amp;dn":"24+S09E11+SUB-ESP+Subtitulado+1080p-McFly-H264.MP4","amp;tr":["udp%3A%2F%2Ftracker.openbittorrent.com%3A80","udp%3A%2F%2Fopen.demonii.com%3A1337","udp%3A%2F%2Ftracker.coppersurfer.tk%3A6969","udp%3A%2F%2Fexodus.desync.com%3A6969"],"infoHash":"ec2de81e5edeb902b01208e86db2d5b7843b7f21","infoHashBuffer":{"type":"Buffer","data":[236,45,232,30,94,222,185,2,176,18,8,232,109,178,213,183,132,59,127,33]},"announce":[],"urlList":[]}}